<?xml version="1.0" encoding="utf-8"?>
<!-- Generator: Adobe Illustrator 21.0.0, SVG Export Plug-In . SVG Version: 6.00 Build 0)  -->
<svg version="1.1" id="Layer_1" xmlns="http://www.w3.org/2000/svg" xmlns:xlink="http://www.w3.org/1999/xlink" x="0px" y="0px"
	 viewBox="0 0 512 512" style="enable-background:new 0 0 512 512;" xml:space="preserve">
<style type="text/css">
	.st0{fill:#141F38;}
</style>
<title>telescope_style_1</title>
<path class="st0" d="M311.2,310.5c17.8-12.7,25.5-35.3,19.3-56.2l60-21l0.9-0.3l-41.5-87.1l-5.2-10.9l-42.1-88.4L132.4,147.6
	l-0.8,0.5l72,150.6L234,288c3.7,9,9.8,16.8,17.7,22.4l-96.8,182.8c-3.3,6.2-0.9,14,5.3,17.3c6.2,3.3,14,0.9,17.3-5.3l0,0l91.1-172.1
	v166.1c0,7.1,5.7,12.8,12.8,12.8c7.1,0,12.8-5.7,12.8-12.8V333.1l91.1,172.1c3.3,6.2,11.1,8.6,17.3,5.3s8.6-11.1,5.3-17.3
	L311.2,310.5z M258.2,279.5l10.4-3.6l1.6-0.6l11.1-3.9l4.8-1.7l0,0l8-2.8l12.1-4.2c2.7,11.1-2.2,22.6-12.1,28.3
	c-1.4,0.8-2.8,1.5-4.3,2c-0.7,0.3-1.4,0.5-2.1,0.6c-4.2,1.1-8.5,1.1-12.7,0c-0.7-0.2-1.4-0.4-2.1-0.6c-1.5-0.5-3-1.2-4.3-2
	c-1.7-1-3.3-2.2-4.8-3.6C261.5,285.2,259.6,282.5,258.2,279.5L258.2,279.5z M503.7,66.6c-14.2-30.5-44.8-50-78.5-50h-0.3
	C412.5-0.3,389.2-5,371.2,5.8l-45.6,27.1l-0.8,0.5l19.1,40.2l24.1,50.7v0.1l4.6,9.6l24.3,51l18.8,39.5l49.5-17.3
	c19.8-6.9,31.1-27.7,26.2-48.1C513.1,133.3,517.9,97.2,503.7,66.6z M480.5,77.4c8,17.2,7.6,37.1-1.2,53.9l-40.9-87.7
	C456.9,47.8,472.4,60.3,480.5,77.4z M155.5,315.5c-15.6,5.5-33,1-44-11.4l-18.9,8.8c-2.2,9.6-8.7,17.7-17.7,21.9l-9.2,4.3
	c-16,7.5-35,0.5-42.5-15.5l-20-42.9c-7.5-16-0.5-35.1,15.5-42.5c0,0,0,0,0,0l9.2-4.3c9-4.2,19.3-4,28.1,0.5l17.3-8.1l-0.3-0.8
	c-8.8-19-1.9-41.6,16.1-52.3l20.4-12.1l69.9,146l-0.9,0.3L155.5,315.5z"/>
</svg>
